<?xml version="1.0" standalone="no"?>
<!DOCTYPE svg PUBLIC "-//W3C//DTD SVG 1.1//EN" "http://www.w3.org/Graphics/SVG/1.1/DTD/svg11.dtd" >
<svg xmlns="http://www.w3.org/2000/svg">
<metadata>Generated by IcoMoon</metadata>
<defs>
<font id="icomoon" horiz-adv-x="1024">
<font-face units-per-em="1024" ascent="960" descent="-64" />
<missing-glyph horiz-adv-x="1024" />
<glyph unicode="&#x20;" horiz-adv-x="512" d="" />
<glyph unicode="&#xe900;" glyph-name="about" d="M532.109 222.163h81.982v-40.218h-204.181v40.218h81.982v245.946h-81.982v40.218h122.199v-286.163zM512-64v0 0c-283.069 0-512 228.931-512 512s228.931 512 512 512c283.069 0 512-228.931 512-512s-228.931-512-512-512zM512-23.782c259.867 0 470.236 210.369 470.236 470.236s-210.369 470.236-470.236 470.236c-259.867 0-470.236-210.369-470.236-470.236s210.369-470.236 470.236-470.236v0 0zM512 590.308c34.030 0 61.873 27.843 61.873 61.873s-27.843 61.873-61.873 61.873c-34.030 0-61.873-27.843-61.873-61.873s27.843-61.873 61.873-61.873v0 0z" />
<glyph unicode="&#xe901;" glyph-name="close" d="M556.398 450.96l455.773 449.854c11.838 17.757 11.838 35.515 0 47.353-11.838 17.757-35.515 17.757-47.353 0l-455.773-449.854-449.854 449.854c-17.757 17.757-35.515 17.757-47.353 0-17.757-11.838-17.757-29.596 0-47.353l449.854-449.854-449.854-455.773c-17.757-11.838-17.757-35.515 0-47.353 5.919-5.919 11.838-11.838 23.677-11.838 5.919 0 17.757 5.919 23.677 11.838l449.854 455.773 455.773-455.773c5.919-5.919 17.757-11.838 23.677-11.838 11.838 0 17.757 5.919 23.677 11.838 11.838 11.838 11.838 35.515 0 47.353l-455.773 455.773z" />
<glyph unicode="&#xe902;" glyph-name="close-s" d="M1024 857.6l-102.4 102.4-409.6-409.6-409.6 409.6-102.4-102.4 409.6-409.6-409.6-409.6 102.4-102.4 409.6 409.6 409.6-409.6 102.4 102.4-409.6 409.6 409.6 409.6z" />
<glyph unicode="&#xe903;" glyph-name="contacts" d="M512-64v0c-282.791 0-512 229.209-512 512s229.209 512 512 512c282.791 0 512-229.209 512-512s-229.209-512-512-512zM512-25.302c260.465 0 473.302 211.349 473.302 473.302 0 260.465-211.349 473.302-473.302 473.302-260.465 0-473.302-211.349-473.302-473.302 0-260.465 211.349-473.302 473.302-473.302v0zM595.349 363.163c-69.953-69.953-361.674-194.977-361.674-194.977s125.023 291.721 194.977 361.674c69.953 69.953 361.674 194.977 361.674 194.977s-125.023-291.721-194.977-361.674v0zM455.442 391.442c31.256-31.256 80.372-31.256 111.628 0s31.256 80.372 0 111.628c-31.256 31.256-80.372 31.256-111.628 0s-31.256-80.372 0-111.628v0z" />
<glyph unicode="&#xe904;" glyph-name="doc" d="M273.067 608.427v-64.853h358.4v64.853zM273.067 417.28v64.853h477.867v-64.853zM703.147 960h-549.547v-1024h716.8v846.507l-167.253 177.493zM692.907 884.907l105.813-116.053h-105.813c0 0 0 116.053 0 116.053zM215.040 0.853v897.707h419.84v-191.147h180.907v-706.56h-600.747z" />
<glyph unicode="&#xe905;" glyph-name="down-thin" d="M891.802 647.219c13.926 13.722 36.301 13.722 50.125 0s13.875-35.891 0-49.613l-404.89-400.896c-13.824-13.722-36.198-13.722-50.125 0l-404.89 400.896c-13.824 13.722-13.824 35.891 0 49.613 13.875 13.722 36.301 13.722 50.125 0l379.853-365.619 379.802 365.619z" />
<glyph unicode="&#xe906;" glyph-name="left" d="M730.211-6.451c0 0-35.794 0-35.794 35.794l-465.328 465.328 465.328 465.328c0 0 35.794 0 71.589 0 35.794-35.794 35.794-71.589 0-71.589l-393.739-393.739 393.739-393.739c35.794-35.794 35.794-71.589 0-71.589 0-35.794-35.794-35.794-35.794-35.794z" />
<glyph unicode="&#xe907;" glyph-name="left-thin" d="M711.219 68.198c13.722-13.926 13.722-36.301 0-50.125s-35.891-13.875-49.613 0l-400.896 404.89c-13.722 13.824-13.722 36.198 0 50.125l400.896 404.89c13.722 13.824 35.891 13.824 49.613 0 13.722-13.875 13.722-36.301 0-50.125l-365.619-379.853 365.619-379.802z" />
<glyph unicode="&#xe908;" glyph-name="link" d="M511.977-64c-282.752 0-511.977 229.271-511.977 512.023s229.225 511.977 511.977 511.977 511.977-229.225 511.977-511.977-229.225-512.023-511.977-512.023zM512.907 880.988c-239.037 0-432.825-193.788-432.825-432.778 0-239.037 193.788-432.825 432.825-432.825s432.825 193.788 432.825 432.825c0 238.991-193.788 432.778-432.825 432.778zM768.918 420.957l-190.765-190.718-65.758 65.758 106.032 106.032h-359.951v93.011h368.508l-111.985 111.938 65.758 65.805 190.718-190.765-31.81-31.81 29.252-29.252z" />
<glyph unicode="&#xe909;" glyph-name="m1" d="M523.754 782.208c80.372 0 144.913-64.541 144.913-144.913s-64.541-146.131-144.913-146.131c-80.372 0-146.131 65.759-146.131 146.131s65.759 144.913 146.131 144.913zM904.912 79.563l-250.858-124.211v310.528l135.171 186.317 13.395 19.484h-1.218c0 0 0 0 0 0 1.218 1.218 1.218 2.436 2.436 3.653 24.355 43.839 38.968 91.332 42.621 141.26l58.452 29.226v-566.256zM380.059 282.928l143.695-199.712 107.162 149.784v-277.648l-250.858 124.211v203.365zM106.064 521.608l101.074 49.928c0 0 0 0 0 0 1.218-6.089 2.436-12.178 4.871-18.266 0-2.436 0-3.653 1.218-6.089 1.218-4.871 2.436-9.742 4.871-14.613 0-1.218 0-2.436 1.218-3.653 3.653-13.395 9.742-25.573 15.831-36.533 0-1.218 1.218-3.653 1.218-4.871 2.436-3.653 4.871-8.524 8.524-13.395 0-1.218 0-2.436 1.218-2.436h-1.218l112.034-157.090v-235.027l-250.858-124.211v566.256zM523.754 936.863c165.615 0 299.568-135.171 299.568-299.568 0-4.871 0-8.524 0-13.395 0 0 0 0 0 0-1.218-20.702-4.871-42.621-9.742-62.106 0 0 0-1.218 0-1.218-1.218-6.089-3.653-12.178-6.089-19.484 0 0 0-1.218 0-1.218-2.436-6.089-4.871-12.178-7.307-18.266 0-1.218-1.218-2.436-1.218-3.653-2.436-4.871-4.871-9.742-7.307-14.613-1.218-2.436-2.436-4.871-3.653-8.524-2.436-3.653-3.653-7.307-6.089-9.742-3.653-7.307-7.307-13.395-12.178-19.484l-245.987-342.189-244.769 339.754-2.436 3.653c-3.653 4.871-7.307 10.96-10.96 17.049-1.218 1.218-1.218 2.436-2.436 4.871-2.436 4.871-6.089 9.742-8.524 14.613 0 1.218-1.218 2.436-1.218 3.653-6.089 12.178-10.96 25.573-15.831 38.968 0 1.218-1.218 2.436-1.218 4.871-1.218 4.871-2.436 9.742-3.653 14.613-1.218 2.436-1.218 3.653-2.436 6.089-3.653 20.702-6.089 42.621-6.089 65.759 0 164.397 133.953 299.568 299.568 299.568zM923.178 673.827c-3.653 2.436-7.307 2.436-10.96 1.218l-65.759-32.879c-2.436 175.357-146.131 317.834-322.705 317.834-179.010 0-323.923-144.913-323.923-322.705 0-14.613 1.218-28.008 3.653-41.404l-114.469-56.017c-3.653-2.436-6.089-6.089-6.089-10.96v-591.829c0-3.653 2.436-8.524 6.089-9.742 1.218-1.218 3.653-2.436 6.089-2.436 1.218 0 2.436 1.218 4.871 1.218l269.124 132.735 267.906-132.735c1.218 0 1.218 0 1.218 0 1.218 0 2.436-1.218 4.871-1.218 1.218 0 2.436 1.218 3.653 1.218s1.218 0 1.218 0l273.995 135.171c3.653 2.436 6.089 6.089 6.089 10.96v591.829c0 3.653-1.218 7.307-4.871 9.742zM523.754 468.027c92.549 0 169.268 75.501 169.268 169.268 0 92.549-76.719 168.050-169.268 168.050-93.767 0-169.268-75.501-169.268-168.050 0-93.767 75.501-169.268 169.268-169.268z" />
<glyph unicode="&#xe90a;" glyph-name="m2" d="M113.457-34.783h806.038v969.673h-806.038v-969.673zM516.894 847.841c46.035 0 83.701-37.247 83.701-83.701 0-46.035-37.665-83.701-83.701-83.701s-83.701 37.665-83.701 83.701c0 46.454 37.665 83.701 83.701 83.701zM595.991 690.484c18.414 19.251 29.295 45.198 29.295 73.657 0 60.265-48.546 108.811-108.392 108.811s-108.811-48.546-108.811-108.811c0-27.203 10.463-52.313 27.621-71.564l-50.639-120.948 61.102 22.599 32.643-56.916 36.828 102.952 36.828-102.952 32.643 56.916 60.683-22.599-49.802 118.855zM675.088 127.596h-318.9v24.692h318.9v-24.692zM770.089 232.641h-508.9v24.692h508.9v-24.692zM770.089 337.685h-508.9v25.11h508.9v-25.11zM770.089 443.148h-508.9v24.692h508.9v-24.692zM944.605-59.893h-856.258v1019.893h856.258v-1019.893z" />
<glyph unicode="&#xe90b;" glyph-name="m3" d="M838.531 89.23c-40.642 33.635-86.422 60.729-135.473 80.349 38.773 82.218 59.795 171.911 61.664 265.34h232.64c-3.737-136.874-63.999-259.734-158.83-345.69zM26.627 434.92h231.705c1.869-93.43 23.357-183.589 61.664-265.34-48.116-19.62-93.897-46.715-134.539-80.349-94.831 85.955-155.093 208.815-158.83 345.69zM185.925 807.704c41.109-33.635 86.422-60.729 135.006-79.882-39.24-82.218-60.729-172.845-62.598-266.742h-231.705c3.737 137.342 64.466 260.669 159.298 346.624zM525.075 461.080v229.837c52.321 1.401 103.707 10.744 152.757 27.095 37.839-78.948 58.861-166.305 60.729-256.931h-213.487zM525.075 206.484v228.435h213.487c-1.869-90.16-22.423-177.049-60.262-255.997-49.051 16.817-100.437 26.16-153.225 27.562zM691.379 146.222c45.781-18.219 88.291-43.445 127.064-74.744-74.277-60.262-166.772-99.503-267.676-107.444 57.926 52.788 105.108 114.451 140.612 182.188zM525.075-23.353v203.677c48.583-1.401 96.233-9.81 141.079-25.226-35.036-66.802-82.685-127.064-141.079-178.451zM472.754-35.966c-100.904 8.409-192.932 47.182-267.209 107.444 38.306 31.299 81.284 56.058 126.597 74.277 35.036-67.736 82.685-128.933 140.612-181.721zM498.914 180.324v-204.144c-58.861 51.386-106.51 112.116-142.013 178.918 45.781 15.416 93.43 23.825 142.013 25.226zM498.914 434.92v-228.435c-52.788-1.401-104.641-10.744-154.159-27.562-37.372 78.948-57.926 165.838-59.795 255.997h213.954zM498.914 690.917v-229.837h-213.954c1.869 90.627 22.423 177.983 60.729 257.399 49.051-16.817 100.437-26.16 153.225-27.562zM332.609 751.179c-45.313 18.219-87.824 42.978-126.13 73.809 73.809 60.262 165.838 98.568 266.274 106.977-57.926-52.321-104.641-113.517-140.144-180.786zM498.914 919.82v-202.742c-48.583 1.401-96.233 9.81-141.079 25.226 35.036 66.335 82.685 126.597 141.079 177.516zM550.768 931.966c100.437-7.942 192.465-46.715 266.742-106.977-38.306-31.299-81.284-56.058-126.597-73.809-35.503 67.269-82.685 128.466-140.144 180.786zM525.075 919.353c57.926-50.919 105.575-111.181 140.612-177.516-44.846-14.949-92.495-23.357-140.612-24.759v202.275zM997.361 461.080h-232.64c-1.869 93.897-23.357 184.056-62.131 266.274 48.583 19.62 94.364 46.715 135.473 80.349 94.831-85.955 155.56-209.282 159.298-346.624zM511.994 959.994c-282.157 0-511.994-229.837-511.994-511.994s229.837-511.994 511.994-511.994c282.157 0 511.994 229.837 511.994 511.994s-229.837 511.994-511.994 511.994z" />
<glyph unicode="&#xe90c;" glyph-name="marka" d="M920.459-7.387v812.254h-19.026c-32.197 0-58.541 26.343-58.541 58.541s26.343 58.541 58.541 58.541h19.026v38.052h-677.61c-52.687 0-96.592-42.442-96.592-96.592v-755.176c0-62.931 51.223-115.618 115.618-115.618h658.584zM882.407 766.815v-736.151h-541.502v736.151h155.133v-425.884l115.618 115.618 115.618-115.618v425.884h155.133zM301.39 30.665h-39.515c-42.442 0-77.567 35.124-77.567 77.567v677.61c16.099-11.708 36.588-19.026 57.077-19.026h58.541v-736.151h1.464zM242.849 921.948v-1.464h581.017c0 0-19.026-27.807-19.026-57.077 0-27.807 19.026-58.541 19.026-58.541h-581.017c-32.197 0-58.541 26.343-58.541 58.541s26.343 58.541 58.541 58.541zM534.089 766.815h155.133v-333.683l-77.567 77.567-77.567-77.567v333.683z" />
<glyph unicode="&#xe90d;" glyph-name="menu" d="M0 779.857h1057.408v116.199h-1057.408v-116.199zM0 59.426h1057.408v116.199h-1057.408v-116.199zM0 419.641h1057.408v116.199h-1057.408v-116.199z" />
<glyph unicode="&#xe90e;" glyph-name="phone" d="M837.019 149.701c-17.809 35.618-195.898 89.045-204.802 89.045h-17.809c-17.809-8.904-44.522-35.618-106.853-80.14-62.331 26.713-151.376 106.853-186.994 151.376-44.522 53.427-97.949 133.567-115.758 195.898 62.331 53.427 89.045 80.14 89.045 106.853 0 17.809-26.713 195.898-62.331 213.707l-8.904 8.904c-17.809 17.809-53.427 35.618-89.045 26.713-8.904 0-17.809-8.904-17.809-8.904-26.713-17.809-80.14-53.427-106.853-106.853-17.809-26.713-26.713-320.56 195.898-569.885 213.707-240.42 480.841-249.325 516.458-240.42v0h8.904c53.427 17.809 97.949 71.236 115.758 89.045 26.713 44.522 8.904 89.045-8.904 115.758v8.904zM881.541 808.63c-106.853 106.853-240.42 151.376-373.987 151.376v-62.331c115.758 0 231.516-44.522 320.56-133.567s133.567-204.802 133.567-320.56h62.331c8.904 133.567-44.522 267.134-142.471 365.083zM765.783 434.643h71.236c0 89.045-26.713 178.089-97.949 240.42-62.331 62.331-151.376 97.949-231.516 89.045v-62.331c62.331 0 133.567-17.809 186.994-71.236s80.14-124.662 71.236-195.898zM560.981 488.070c17.809-8.904 17.809-35.618 17.809-53.427h62.331c0 35.618-8.904 71.236-35.618 106.853-26.713 26.713-62.331 35.618-106.853 35.618v-71.236c26.713 8.904 44.522 0 62.331-17.809z" />
<glyph unicode="&#xe90f;" glyph-name="play" d="M386.443 635.595v-380.384l329.408 190.187zM511.979 843.456c-218.016 0-395.392-177.419-395.392-395.467s177.376-395.445 395.392-395.445c218.059 0 395.435 177.397 395.435 395.445s-177.376 395.467-395.435 395.467zM511.979 94.229c-195.029 0-353.707 158.688-353.707 353.76 0 195.061 158.677 353.771 353.707 353.771 195.061 0 353.728-158.709 353.728-353.771 0-195.072-158.667-353.76-353.728-353.76z" />
<glyph unicode="&#xe910;" glyph-name="price" d="M723.773 921.988h2.924v38.012h38.012v-38.012h39.474c42.398 0 77.486-35.088 77.486-77.486v-811.413c0-42.398-35.088-77.486-77.486-77.486h-580.416c-42.398 0-77.486 35.088-77.486 77.486v811.413c0 42.398 35.088 77.486 77.486 77.486h39.474v38.012h38.012v-38.012h115.498v38.012h38.012v-38.012h115.498v38.012h38.012v-38.012h115.498zM723.773 883.976h-115.498v-38.012h-38.012v38.012h-115.498v-38.012h-38.012v38.012h-115.498v-38.012h-38.012v38.012h-38.012c-21.93 0-38.012-17.544-38.012-39.474v-811.413c0-21.93 17.544-39.474 38.012-39.474h580.416c21.93 0 38.012 17.544 38.012 39.474v811.413c0 21.93-17.544 39.474-38.012 39.474h-38.012v-38.012h-38.012v38.012h-5.848zM453.302 613.505h309.945v-38.012h-309.945v38.012zM260.317 651.517h115.498v-115.498h-115.498v115.498zM298.329 613.505v-38.012h38.012v38.012h-38.012zM260.317 458.532h115.498v-115.498h-115.498v115.498zM298.329 420.52v-38.012h38.012v38.012h-38.012zM453.302 420.52h309.945v-38.012h-309.945v38.012zM260.317 265.547h115.498v-115.498h-115.498v115.498zM298.329 227.535v-38.012h38.012v38.012h-38.012zM453.302 227.535v-38.012h309.945v38.012h-309.945z" />
<glyph unicode="&#xe911;" glyph-name="products" d="M0 576.98l192.951 309.891h580.315l192.951-309.891v-618.321h-966.217v618.321zM919.441 576.98l-169.563 270.424h-533.539l-169.563-270.424h872.665zM38.006 538.975v-540.848h890.206v540.848h-890.206zM385.902 346.024h192.951c42.391 0 77.473-35.082 77.473-77.473 0-43.853-35.082-77.473-77.473-77.473h-192.951c-42.391 0-77.473 35.082-77.473 77.473 0 43.853 35.082 77.473 77.473 77.473zM385.902 308.018c-21.926 0-39.467-17.541-39.467-38.006 0-21.926 17.541-38.006 39.467-38.006h192.951c21.926 0 39.467 17.541 39.467 38.006 0 21.926-17.541 38.006-39.467 38.006h-192.951zM270.424 810.861l-23.388-38.006h472.145l-23.388 38.006h-425.369zM220.724 733.388l-23.388-38.006h573.006l-23.388 38.006h-526.23zM173.948 655.915l-23.388-38.006h665.097l-23.388 38.006h-618.321z" />
<glyph unicode="&#xe912;" glyph-name="right" d="M286.107-6.451c-30.202 0-30.202 0-30.202 30.202-30.202 0-30.202 30.202 0 60.403l392.621 392.621-392.621 392.621c-30.202 30.202-30.202 60.403 0 60.403 0 30.202 30.202 30.202 60.403 0l453.024-453.024-453.024-453.024c0-30.202-30.202-30.202-30.202-30.202z" />
<glyph unicode="&#xe913;" glyph-name="right-thin" d="M678.4 448l-365.619 379.904c-13.722 13.824-13.722 36.198 0 50.125 13.722 13.824 35.891 13.824 49.613 0l400.896-404.89c13.722-13.875 13.722-36.301 0-50.125l-400.896-404.89c-13.722-13.875-35.891-13.824-49.613 0-13.722 13.773-13.722 36.198 0 50.125l365.619 379.75z" />
<glyph unicode="&#xe914;" glyph-name="search" d="M691.419 263.437c-63.169-44.389-139.995-71.705-221.944-71.705-211.7 0-384.134 172.433-384.134 384.134s172.433 384.134 384.134 384.134c211.7 0 384.134-172.433 384.134-384.134 0-105.85-42.682-201.457-112.679-271.455l271.455-271.455c11.951-11.951 11.951-32.438 0-44.389s-32.438-11.951-44.389 0l-274.869 274.869h-1.707zM469.475 237.828c187.799 0 338.038 151.946 338.038 338.038 0 187.799-151.946 338.038-338.038 338.038-187.799 0-338.038-151.946-338.038-338.038 0-187.799 151.946-338.038 338.038-338.038v0z" />
<glyph unicode="&#xe915;" glyph-name="spravka" d="M734.791-64h-645.675c-48.762 0-89.117 40.355-89.117 89.117v845.767c0 48.762 40.355 89.117 89.117 89.117h845.767c48.762 0 89.117-40.355 89.117-89.117v-622.135l-267.35-311.067h-21.859v-1.681zM45.399 692.65v-667.534c0-25.222 20.177-43.718 45.399-43.718h622.135v221.951c0 50.443 40.355 89.117 89.117 89.117h178.233v400.184h-934.883zM45.399 736.368l-1.681-1.681h934.883v132.834c0 25.222-18.496 45.399-43.718 45.399h-845.767c-23.54 0-43.718-18.496-43.718-43.718v-132.834zM756.65 1.576l208.499 245.491h-164.782c-23.54 0-43.718-20.177-43.718-45.399v-200.092zM356.466 379.901h311.067v-43.718h-311.067v43.718zM134.516 423.619h132.834v-132.834h-132.834v132.834zM178.233 379.901v-43.718h43.718v43.718h-43.718zM356.466 558.135h534.7v-43.718h-534.7v43.718zM134.516 601.852h132.834v-132.834h-132.834v132.834zM178.233 558.135v-43.718h43.718v43.718h-43.718zM356.466 201.668h267.35v-43.718h-267.35v43.718zM134.516 245.386h132.834v-132.834h-132.834v132.834zM178.233 201.668v-43.718h43.718v43.718h-43.718z" />
<glyph unicode="&#xe916;" glyph-name="up-thin" d="M132.198 248.781c-13.926-13.722-36.301-13.722-50.125 0s-13.875 35.891 0 49.613l404.89 400.896c13.824 13.722 36.198 13.722 50.125 0l404.89-400.896c13.824-13.722 13.824-35.891 0-49.613-13.875-13.722-36.301-13.722-50.074 0l-379.904 365.619-379.802-365.619z" />
<glyph unicode="&#xe917;" glyph-name="checkmark" d="M1014.592 731.744l-90.848 90.848c-12.576 12.576-32.832 12.576-45.408 0l-464.48-490.368-266.24 266.368c-12.704 12.704-33.312 12.704-46.016 0l-92.032-92.096c-12.704-12.672-12.704-33.28 0-46.016l378.656-387.456c7.328-7.36 17.28-9.888 26.848-8.64 9.888-1.472 20.192 1.024 27.776 8.64l571.744 613.28c12.544 12.544 12.544 32.896 0 45.44z" />
</font>
</defs>
</svg>
