<?xml version="1.0" encoding="UTF-8"?>
<!DOCTYPE svg PUBLIC "-//W3C//DTD SVG 1.1//EN" "http://www.w3.org/Graphics/SVG/1.1/DTD/svg11.dtd">
<!-- Creator: CorelDRAW X6 -->
<svg xmlns="http://www.w3.org/2000/svg" xml:space="preserve" width="6.62mm" height="6.62mm" version="1.1" style="shape-rendering:geometricPrecision; text-rendering:geometricPrecision; image-rendering:optimizeQuality; fill-rule:evenodd; clip-rule:evenodd"
viewBox="0 0 662 662"
 xmlns:xlink="http://www.w3.org/1999/xlink"
 xmlns:sketch="http://www.bohemiancoding.com/sketch/ns">
 <defs>
  <style type="text/css">
   <![CDATA[
    .fil0 {fill:#551954}
   ]]>
  </style>
 </defs>
 <g id="Слой_x0020_1">
  <metadata id="CorelCorpID_0Corel-Layer"/>
  <g id="Page-1">
   <g id="icon-29-information">
    <path id="information" class="fil0" d="M344 477l0 -165 0 -20 -79 0 0 26 53 0 0 159 -53 0 0 26 132 0 0 -26 -53 0 0 0 0 0zm-13 185c183,0 331,-148 331,-331 0,-183 -148,-331 -331,-331 -183,0 -331,148 -331,331 0,183 148,331 331,331l0 0 0 0zm0 -26c168,0 304,-136 304,-304 0,-168 -136,-304 -304,-304 -168,0 -304,136 -304,304 0,168 136,304 304,304l0 0 0 0zm0 -397c22,0 40,-18 40,-40 0,-22 -18,-40 -40,-40 -22,0 -40,18 -40,40 0,22 18,40 40,40l0 0 0 0z"/>
   </g>
  </g>
 </g>
</svg>
