<?xml version="1.0" encoding="UTF-8"?>
<!DOCTYPE svg PUBLIC "-//W3C//DTD SVG 1.1//EN" "http://www.w3.org/Graphics/SVG/1.1/DTD/svg11.dtd">
<!-- Creator: CorelDRAW X7 -->
<svg xmlns="http://www.w3.org/2000/svg" xml:space="preserve" width="10.7748mm" height="10.7747mm" version="1.1" style="shape-rendering:geometricPrecision; text-rendering:geometricPrecision; image-rendering:optimizeQuality; fill-rule:evenodd; clip-rule:evenodd"
viewBox="0 0 173 173"
 xmlns:xlink="http://www.w3.org/1999/xlink">
 <defs>
  <style type="text/css">
   <![CDATA[
    .fil0 {fill:#969696;fill-rule:nonzero}
   ]]>
  </style>
 </defs>
 <g id="Слой_x0020_1">
  <metadata id="CorelCorpID_0Corel-Layer"/>
  <path class="fil0" d="M94 86l77 -76c2,-3 2,-6 0,-8 -2,-3 -6,-3 -8,0l-77 76 -76 -76c-3,-3 -6,-3 -8,0 -3,2 -3,5 0,8l76 76 -76 77c-3,2 -3,6 0,8 1,1 2,2 4,2 1,0 3,-1 4,-2l76 -77 77 77c1,1 3,2 4,2 2,0 3,-1 4,-2 2,-2 2,-6 0,-8l-77 -77z"/>
 </g>
</svg>
