<?xml version="1.0" encoding="UTF-8"?>
<!DOCTYPE svg PUBLIC "-//W3C//DTD SVG 1.1//EN" "http://www.w3.org/Graphics/SVG/1.1/DTD/svg11.dtd">
<!-- Creator: CorelDRAW X6 -->
<svg xmlns="http://www.w3.org/2000/svg" xml:space="preserve" width="6.879mm" height="6.879mm" version="1.1" style="shape-rendering:geometricPrecision; text-rendering:geometricPrecision; image-rendering:optimizeQuality; fill-rule:evenodd; clip-rule:evenodd"
viewBox="0 0 688 688"
 xmlns:xlink="http://www.w3.org/1999/xlink"
 xmlns:sketch="http://www.bohemiancoding.com/sketch/ns">
 <defs>
  <style type="text/css">
   <![CDATA[
    .fil0 {fill:#551954}
   ]]>
  </style>
 </defs>
 <g id="Слой_x0020_1">
  <metadata id="CorelCorpID_0Corel-Layer"/>
  <g id="Page-1">
   <g id="icon-62-compass">
    <path id="compass" class="fil0" d="M344 688c190,0 344,-154 344,-344 0,-190 -154,-344 -344,-344 -190,0 -344,154 -344,344 0,190 154,344 344,344l0 0zm0 -26c175,0 318,-142 318,-318 0,-175 -142,-318 -318,-318 -175,0 -318,142 -318,318 0,175 142,318 318,318l0 0zm56 -261c-47,47 -243,131 -243,131 0,0 84,-196 131,-243 47,-47 243,-131 243,-131 0,0 -84,196 -131,243l0 0zm-94 -19c21,21 54,21 75,0 21,-21 21,-54 0,-75 -21,-21 -54,-21 -75,0 -21,21 -21,54 0,75l0 0z"/>
   </g>
  </g>
 </g>
</svg>
