<svg xmlns="http://www.w3.org/2000/svg" width="22.019" height="22.019" viewBox="0 0 22.019 22.019"><path d="M11.009 22.019c-6.08 0-11.009-4.93-11.009-11.01s4.929-11.009 11.009-11.009 11.009 4.929 11.009 11.009-4.929 11.01-11.009 11.01zm.02-20.32c-5.14 0-9.307 4.167-9.307 9.306 0 5.14 4.167 9.307 9.307 9.307s9.307-4.167 9.307-9.307c0-5.139-4.167-9.306-9.307-9.306zm5.505 9.892l-4.102 4.101-1.414-1.414 2.28-2.28h-7.74v-2h7.924l-2.408-2.407 1.414-1.415 4.101 4.102-.684.684.629.629z" fill-rule="evenodd" clip-rule="evenodd" fill="#fff"/></svg>