<?xml version="1.0" encoding="UTF-8"?>
<!DOCTYPE svg PUBLIC "-//W3C//DTD SVG 1.1//EN" "http://www.w3.org/Graphics/SVG/1.1/DTD/svg11.dtd">
<!-- Creator: CorelDRAW X7 -->
<svg xmlns="http://www.w3.org/2000/svg" xml:space="preserve" width="25.6057mm" height="31.3358mm" version="1.1" style="shape-rendering:geometricPrecision; text-rendering:geometricPrecision; image-rendering:optimizeQuality; fill-rule:evenodd; clip-rule:evenodd"
viewBox="0 0 694 850"
 xmlns:xlink="http://www.w3.org/1999/xlink">
 <defs>
  <style type="text/css">
   <![CDATA[
    .fil0 {fill:#CC9A2E;fill-rule:nonzero}
   ]]>
  </style>
 </defs>
 <g id="Слой_x0020_1">
  <metadata id="CorelCorpID_0Corel-Layer"/>
  <path class="fil0" d="M362 146c66,0 119,53 119,119 0,66 -53,120 -119,120 -66,0 -120,-54 -120,-120 0,-66 54,-119 120,-119zm313 577l-206 102 0 -255 111 -153 11 -16 -1 0c0,0 0,0 0,0 1,-1 1,-2 2,-3 20,-36 32,-75 35,-116l48 -24 0 465zm-431 -167l118 164 88 -123 0 228 -206 -102 0 -167zm-225 -196l83 -41c0,0 0,0 0,0 1,5 2,10 4,15 0,2 0,3 1,5 1,4 2,8 4,12 0,1 0,2 1,3 3,11 8,21 13,30 0,1 1,3 1,4 2,3 4,7 7,11 0,1 0,2 1,2l-1 0 92 129 0 193 -206 102 0 -465zm343 -341c136,0 246,111 246,246 0,4 0,7 0,11 0,0 0,0 0,0 -1,17 -4,35 -8,51 0,0 0,1 0,1 -1,5 -3,10 -5,16 0,0 0,1 0,1 -2,5 -4,10 -6,15 0,1 -1,2 -1,3 -2,4 -4,8 -6,12 -1,2 -2,4 -3,7 -2,3 -3,6 -5,8 -3,6 -6,11 -10,16l-202 281 -201 -279 -2 -3c-3,-4 -6,-9 -9,-14 -1,-1 -1,-2 -2,-4 -2,-4 -5,-8 -7,-12 0,-1 -1,-2 -1,-3 -5,-10 -9,-21 -13,-32 0,-1 -1,-2 -1,-4 -1,-4 -2,-8 -3,-12 -1,-2 -1,-3 -2,-5 -3,-17 -5,-35 -5,-54 0,-135 110,-246 246,-246zm328 216c-3,-2 -6,-2 -9,-1l-54 27c-2,-144 -120,-261 -265,-261 -147,0 -266,119 -266,265 0,12 1,23 3,34l-94 46c-3,2 -5,5 -5,9l0 486c0,3 2,7 5,8 1,1 3,2 5,2 1,0 2,-1 4,-1l221 -109 220 109c1,0 1,0 1,0 1,0 2,1 4,1 1,0 2,-1 3,-1 1,0 1,0 1,0l225 -111c3,-2 5,-5 5,-9l0 -486c0,-3 -1,-6 -4,-8zm-328 169c76,0 139,-62 139,-139 0,-76 -63,-138 -139,-138 -77,0 -139,62 -139,138 0,77 62,139 139,139z"/>
 </g>
</svg>
