<?xml version="1.0" encoding="UTF-8"?>
<!DOCTYPE svg PUBLIC "-//W3C//DTD SVG 1.1//EN" "http://www.w3.org/Graphics/SVG/1.1/DTD/svg11.dtd">
<!-- Creator: CorelDRAW X7 -->
<svg xmlns="http://www.w3.org/2000/svg" xml:space="preserve" width="24.2535mm" height="28.8837mm" version="1.1" style="shape-rendering:geometricPrecision; text-rendering:geometricPrecision; image-rendering:optimizeQuality; fill-rule:evenodd; clip-rule:evenodd"
viewBox="0 0 2046 2437"
 xmlns:xlink="http://www.w3.org/1999/xlink">
 <defs>
  <style type="text/css">
   <![CDATA[
    .fil0 {fill:#CC9A2E;fill-rule:nonzero}
   ]]>
  </style>
 </defs>
 <g id="Слой_x0020_1">
  <metadata id="CorelCorpID_0Corel-Layer"/>
  <path class="fil0" d="M60 2377l1926 0 0 -2317 -1926 0 0 2317zm964 -2109c110,0 200,89 200,200 0,110 -90,200 -200,200 -110,0 -200,-90 -200,-200 0,-111 90,-200 200,-200zm189 376c44,-46 70,-108 70,-176 0,-144 -116,-260 -259,-260 -143,0 -260,116 -260,260 0,65 25,125 66,171l-121 289 146 -54 78 136 88 -246 88 246 78 -136 145 54 -119 -284zm189 1345l-762 0 0 -59 762 0 0 59zm227 -251l-1216 0 0 -59 1216 0 0 59zm0 -251l-1216 0 0 -60 1216 0 0 60zm0 -252l-1216 0 0 -59 1216 0 0 59zm417 1202l-2046 0 0 -2437 2046 0 0 2437z"/>
 </g>
</svg>
