<?xml version="1.0" encoding="UTF-8"?>
<!DOCTYPE svg PUBLIC "-//W3C//DTD SVG 1.1//EN" "http://www.w3.org/Graphics/SVG/1.1/DTD/svg11.dtd">
<!-- Creator: CorelDRAW X7 -->
<svg xmlns="http://www.w3.org/2000/svg" xml:space="preserve" width="27.3692mm" height="27.3695mm" version="1.1" style="shape-rendering:geometricPrecision; text-rendering:geometricPrecision; image-rendering:optimizeQuality; fill-rule:evenodd; clip-rule:evenodd"
viewBox="0 0 2192 2192"
 xmlns:xlink="http://www.w3.org/1999/xlink">
 <defs>
  <style type="text/css">
   <![CDATA[
    .fil0 {fill:#CC9A2E;fill-rule:nonzero}
   ]]>
  </style>
 </defs>
 <g id="Слой_x0020_1">
  <metadata id="CorelCorpID_0Corel-Layer"/>
  <path class="fil0" d="M1795 1864c-87,-72 -185,-130 -290,-172 83,-176 128,-368 132,-568l498 0c-8,293 -137,556 -340,740zm-1738 -740l496 0c4,200 50,393 132,568 -103,42 -201,100 -288,172 -203,-184 -332,-447 -340,-740zm341 -798c88,72 185,130 289,171 -84,176 -130,370 -134,571l-496 0c8,-294 138,-558 341,-742zm726 742l0 -492c112,-3 222,-23 327,-58 81,169 126,356 130,550l-457 0zm0 545l0 -489 457 0c-4,193 -48,379 -129,548 -105,-36 -215,-56 -328,-59zm356 129c98,39 189,93 272,160 -159,129 -357,213 -573,230 124,-113 225,-245 301,-390zm-356 363l0 -436c104,3 206,21 302,54 -75,143 -177,272 -302,382zm-112 27c-216,-18 -413,-101 -572,-230 82,-67 174,-120 271,-159 75,145 177,276 301,389zm56 -463l0 437c-126,-110 -228,-240 -304,-383 98,-33 200,-51 304,-54zm0 -545l0 489c-113,3 -224,23 -330,59 -80,-169 -124,-355 -128,-548l458 0zm0 -548l0 492 -458 0c4,-194 48,-381 130,-551 105,36 215,56 328,59zm-356 -129c-97,-39 -188,-92 -270,-158 158,-129 355,-211 570,-229 -124,112 -224,243 -300,387zm356 -361l0 434c-104,-3 -206,-21 -302,-54 75,-142 177,-271 302,-380zm111 -26c215,17 412,100 571,229 -82,67 -174,120 -271,158 -76,-144 -177,-275 -300,-387zm-55 27c124,109 226,238 301,380 -96,32 -198,50 -301,53l0 -433zm1011 981l-498 0c-4,-201 -50,-394 -133,-570 104,-42 202,-100 290,-172 203,184 333,448 341,742zm-1039 -1068c-604,0 -1096,492 -1096,1096 0,604 492,1096 1096,1096 604,0 1096,-492 1096,-1096 0,-604 -492,-1096 -1096,-1096z"/>
 </g>
</svg>
