<?xml version="1.0" encoding="UTF-8"?>
<!DOCTYPE svg PUBLIC "-//W3C//DTD SVG 1.1//EN" "http://www.w3.org/Graphics/SVG/1.1/DTD/svg11.dtd">
<!-- Creator: CorelDRAW X6 -->
<svg xmlns="http://www.w3.org/2000/svg" xml:space="preserve" width="5.292mm" height="6.623mm" version="1.1" style="shape-rendering:geometricPrecision; text-rendering:geometricPrecision; image-rendering:optimizeQuality; fill-rule:evenodd; clip-rule:evenodd"
viewBox="0 0 529 662"
 xmlns:xlink="http://www.w3.org/1999/xlink"
 xmlns:sketch="http://www.bohemiancoding.com/sketch/ns">
 <defs>
  <style type="text/css">
   <![CDATA[
    .fil0 {fill:#551954}
   ]]>
  </style>
 </defs>
 <g id="Слой_x0020_1">
  <metadata id="CorelCorpID_0Corel-Layer"/>
  <g id="Page-1">
   <g id="icon-31-book-bookmark">
    <path id="book-bookmark" class="fil0" d="M529 661l-450 0c-44,0 -79,-36 -79,-79l0 -516c0,-37 30,-66 66,-66l463 0 0 26 -13 0c-22,0 -40,18 -40,40 0,22 18,40 40,40l13 0 0 556 0 0 0 -1zm-26 -529l0 503 -370 0 0 -503 106 0 0 291 79 -79 79 79 0 -291 106 0 0 0zm-397 503l-27 0c-29,0 -53,-24 -53,-53l0 -463c11,8 25,13 39,13l40 0 0 503 0 0 1 0zm-40 -609c-22,0 -40,18 -40,40 0,22 18,40 40,40l397 0c0,0 -13,-21 -13,-40 0,-20 13,-39 13,-39l-397 0 0 0 0 -1zm199 106l0 228 53 -53 53 53 0 -228 -106 0 0 0z"/>
   </g>
  </g>
 </g>
</svg>
