<?xml version="1.0" encoding="UTF-8"?>
<!DOCTYPE svg PUBLIC "-//W3C//DTD SVG 1.1//EN" "http://www.w3.org/Graphics/SVG/1.1/DTD/svg11.dtd">
<!-- Creator: CorelDRAW X7 -->
<svg xmlns="http://www.w3.org/2000/svg" xml:space="preserve" width="8.3566mm" height="8.3565mm" version="1.1" style="shape-rendering:geometricPrecision; text-rendering:geometricPrecision; image-rendering:optimizeQuality; fill-rule:evenodd; clip-rule:evenodd"
viewBox="0 0 115 115"
 xmlns:xlink="http://www.w3.org/1999/xlink">
 <defs>
  <style type="text/css">
   <![CDATA[
    .fil0 {fill:#F1D2A3;fill-rule:nonzero}
   ]]>
  </style>
 </defs>
 <g id="Слой_x0020_1">
  <metadata id="CorelCorpID_0Corel-Layer"/>
  <path class="fil0" d="M94 91c-2,-4 -22,-10 -23,-10l-2 0c-2,1 -5,4 -12,9 -7,-3 -17,-12 -21,-17 -5,-6 -11,-15 -13,-22 7,-6 10,-9 10,-12 0,-2 -3,-22 -7,-24l-1 -1c-2,-2 -6,-4 -10,-3 -1,0 -2,1 -2,1 -3,2 -9,6 -12,12 -2,3 -3,36 22,64 24,27 54,28 58,27l0 0 1 0c6,-2 11,-8 13,-10 3,-5 1,-10 -1,-13l0 -1zm5 -74c-12,-12 -27,-17 -42,-17l0 7c13,0 26,5 36,15 10,10 15,23 15,36l7 0c1,-15 -5,-30 -16,-41zm-13 42l8 0c0,-10 -3,-20 -11,-27 -7,-7 -17,-11 -26,-10l0 7c7,0 15,2 21,8 6,6 9,14 8,22zm-23 -6c2,1 2,4 2,6l7 0c0,-4 -1,-8 -4,-12 -3,-3 -7,-4 -12,-4l0 8c3,-1 5,0 7,2z"/>
 </g>
</svg>
