<?xml version="1.0" encoding="UTF-8"?>
<!DOCTYPE svg PUBLIC "-//W3C//DTD SVG 1.1//EN" "http://www.w3.org/Graphics/SVG/1.1/DTD/svg11.dtd">
<!-- Creator: CorelDRAW X6 -->
<svg xmlns="http://www.w3.org/2000/svg" xml:space="preserve" width="5.027mm" height="6.866mm" version="1.1" style="shape-rendering:geometricPrecision; text-rendering:geometricPrecision; image-rendering:optimizeQuality; fill-rule:evenodd; clip-rule:evenodd"
viewBox="0 0 503 687"
 xmlns:xlink="http://www.w3.org/1999/xlink"
 xmlns:sketch="http://www.bohemiancoding.com/sketch/ns">
 <defs>
  <style type="text/css">
   <![CDATA[
    .fil0 {fill:#551954}
   ]]>
  </style>
 </defs>
 <g id="Слой_x0020_1">
  <metadata id="CorelCorpID_0Corel-Layer"/>
  <g id="Page-1">
   <g id="icon-53-notebook-list">
    <path id="notebook-list" class="fil0" d="M395 26l-79 0 0 -26 -26 0 0 26 -79 0 0 -26 -26 0 0 26 0 0 -79 0 0 -26 -26 0 0 26 -27 0c-29,0 -53,24 -53,53l0 555c0,29 24,53 53,53l397 0c29,0 53,-24 53,-53l0 -555c0,-29 -24,-53 -53,-53l-27 0 0 -26 -26 0 0 26 0 0 -2 0zm0 26l-79 0 0 26 -26 0 0 -26 -79 0 0 26 -26 0 0 -26 -79 0 0 26 -26 0 0 -26 -26 0c-15,0 -26,12 -26,27l0 555c0,15 12,27 26,27l397 0c15,0 26,-12 26,-27l0 -555c0,-15 -12,-27 -26,-27l-26 0 0 26 -26 0 0 -26 0 0 -4 0zm-185 185l0 26 212 0 0 -26 -212 0 0 0zm-132 -26l0 79 79 0 0 -79 -79 0 0 0zm26 26l0 26 26 0 0 -26 -26 0 0 0zm-26 106l0 79 79 0 0 -79 -79 0 0 0zm26 26l0 26 26 0 0 -26 -26 0 0 0zm106 0l0 26 212 0 0 -26 -212 0 0 0zm-132 106l0 79 79 0 0 -79 -79 0 0 0zm26 26l0 26 26 0 0 -26 -26 0 0 0zm106 0l0 26 212 0 0 -26 -212 0 0 0z"/>
   </g>
  </g>
 </g>
</svg>
