<?xml version="1.0" encoding="UTF-8"?>
<!DOCTYPE svg PUBLIC "-//W3C//DTD SVG 1.1//EN" "http://www.w3.org/Graphics/SVG/1.1/DTD/svg11.dtd">
<!-- Creator: CorelDRAW X6 -->
<svg xmlns="http://www.w3.org/2000/svg" xml:space="preserve" width="6.605mm" height="6.345mm" version="1.1" style="shape-rendering:geometricPrecision; text-rendering:geometricPrecision; image-rendering:optimizeQuality; fill-rule:evenodd; clip-rule:evenodd"
viewBox="0 0 661 635"
 xmlns:xlink="http://www.w3.org/1999/xlink"
 xmlns:sketch="http://www.bohemiancoding.com/sketch/ns">
 <defs>
  <style type="text/css">
   <![CDATA[
    .fil0 {fill:#551954}
   ]]>
  </style>
 </defs>
 <g id="Слой_x0020_1">
  <metadata id="CorelCorpID_0Corel-Layer"/>
  <g id="Page-1">
   <g id="icon-141-box-filled">
    <path id="box-filled" class="fil0" d="M0 212l132 -212 397 0 132 212 0 13 0 410 -661 0 0 -423 0 0zm629 0l-116 -185 -365 0 -116 185 597 0 0 0 0 0zm-603 26l0 370 609 0 0 -370 -609 0 0 0zm238 132c-29,0 -53,23 -53,53 0,29 24,53 53,53l132 0c29,0 53,-23 53,-53 0,-29 -24,-53 -53,-53l-132 0 0 0zm0 26c-15,0 -27,12 -27,26 0,15 12,26 27,26l132 0c15,0 27,-12 27,-26 0,-15 -12,-26 -27,-26l-132 0 0 0zm-79 -344l-16 26 323 0 -16 -26 -291 0 0 0zm-34 53l-16 26 392 0 -16 -26 -360 0 0 0 0 0zm-32 53l-16 26 455 0 -16 -26 -423 0 0 0z"/>
   </g>
  </g>
 </g>
</svg>
