<?xml version="1.0" encoding="UTF-8"?>
<!DOCTYPE svg PUBLIC "-//W3C//DTD SVG 1.1//EN" "http://www.w3.org/Graphics/SVG/1.1/DTD/svg11.dtd">
<!-- Creator: CorelDRAW X6 -->
<svg xmlns="http://www.w3.org/2000/svg" xml:space="preserve" width="5.482mm" height="5.742mm" version="1.1" style="shape-rendering:geometricPrecision; text-rendering:geometricPrecision; image-rendering:optimizeQuality; fill-rule:evenodd; clip-rule:evenodd"
viewBox="0 0 548 574"
 xmlns:xlink="http://www.w3.org/1999/xlink"
 xmlns:sketch="http://www.bohemiancoding.com/sketch/ns">
 <defs>
  <style type="text/css">
   <![CDATA[
    .fil0 {fill:#551954}
   ]]>
  </style>
 </defs>
 <g id="Слой_x0020_1">
  <metadata id="CorelCorpID_0Corel-Layer"/>
  <g id="Page-1">
   <g id="icon-111-search">
    <path id="search" class="fil0" d="M355 408c-37,26 -82,42 -130,42 -124,0 -225,-101 -225,-225 0,-124 101,-225 225,-225 124,0 225,101 225,225 0,62 -25,118 -66,159l159 159c7,7 7,19 0,26 -7,7 -19,7 -26,0l-161 -161 0 0 -1 0zm-130 15c110,0 198,-89 198,-198 0,-110 -89,-198 -198,-198 -110,0 -198,89 -198,198 0,110 89,198 198,198l0 0z"/>
   </g>
  </g>
 </g>
</svg>
