<?xml version="1.0" encoding="UTF-8"?>
<!DOCTYPE svg PUBLIC "-//W3C//DTD SVG 1.1//EN" "http://www.w3.org/Graphics/SVG/1.1/DTD/svg11.dtd">
<!-- Creator: CorelDRAW X6 -->
<svg xmlns="http://www.w3.org/2000/svg" xml:space="preserve" width="6.085mm" height="6.085mm" version="1.1" style="shape-rendering:geometricPrecision; text-rendering:geometricPrecision; image-rendering:optimizeQuality; fill-rule:evenodd; clip-rule:evenodd"
viewBox="0 0 609 609"
 xmlns:xlink="http://www.w3.org/1999/xlink"
 xmlns:sketch="http://www.bohemiancoding.com/sketch/ns">
 <defs>
  <style type="text/css">
   <![CDATA[
    .fil0 {fill:#551954}
   ]]>
  </style>
 </defs>
 <g id="Слой_x0020_1">
  <metadata id="CorelCorpID_0Corel-Layer"/>
  <g id="Page-1">
   <g id="icon-45-note-list">
    <path id="note-list" class="fil0" d="M437 609l-384 0c-29,0 -53,-24 -53,-53l0 -503c0,-29 24,-53 53,-53l503 0c29,0 53,24 53,53l0 357 0 13 -159 185 -13 0 0 0 0 0 0 1zm-410 -450l0 397c0,15 12,26 27,26l370 0 0 -132c0,-30 24,-53 53,-53l106 0 0 -238 -556 0 0 0 0 0 0 0zm0 -26l0 -79c0,-15 12,-26 26,-26l503 0c15,0 26,12 26,27l0 79 -556 0 0 0 1 -1zm423 437l0 -119c0,-15 12,-27 26,-27l98 0 -124 146 0 0zm-238 -225l0 26 185 0 0 -26 -185 0 0 0zm-132 -26l0 79 79 0 0 -79 -79 0 0 0zm26 26l0 26 26 0 0 -26 -26 0 0 0zm106 -106l0 26 318 0 0 -26 -318 0 0 0zm-132 -26l0 79 79 0 0 -79 -79 0 0 0zm26 26l0 26 26 0 0 -26 -26 0 0 0zm106 212l0 26 159 0 0 -26 -159 0 0 0zm-132 -26l0 79 79 0 0 -79 -79 0 0 0zm26 26l0 26 26 0 0 -26 -26 0 0 0z"/>
   </g>
  </g>
 </g>
</svg>
